<?xml version="1.0" encoding="utf-8"?>
<!-- Generator: Adobe Illustrator 18.0.0, SVG Export Plug-In . SVG Version: 6.00 Build 0)  -->
<!DOCTYPE svg PUBLIC "-//W3C//DTD SVG 1.1//EN" "http://www.w3.org/Graphics/SVG/1.1/DTD/svg11.dtd">
<svg version="1.1" id="Layer_1" xmlns="http://www.w3.org/2000/svg" xmlns:xlink="http://www.w3.org/1999/xlink" x="0px" y="0px"
	 viewBox="0 0 612 612" enable-background="new 0 0 612 612" xml:space="preserve">
<g>
	<path fill="#0081BA" d="M599.9,74.6l-88.5,32c-45.3-51.4-111.9-83.2-189-83.2c-153.9,0-291.4,126.8-307,283.2
		c-15.6,156.4,96.5,283.2,250.4,283.2s291.4-126.8,307-283.2c5.3-53.3-4.2-103.1-25.1-145.7L599.9,74.6z M534.7,278.5
		c-11.9,119.2-120.8,215.8-243.2,215.8c-122.4,0-211.9-96.6-200-215.8C103.4,159.3,212.3,62.7,334.7,62.7
		c69.6,0,128.6,31.3,164.3,80.2l58.6-35.5l-48.6,50.5l-35.2,36.6L277.5,398.1c15.5,6,32.6,9.3,50.9,9.3c79.8,0,150.8-63,158.5-140.7
		c1.6-16.5,0.3-32.3-3.6-47l33.2-47.5C531.7,203.6,538.5,239.8,534.7,278.5z"/>
	<path fill="#0081BA" d="M356.6,126c-79.8,0-150.8,63-158.5,140.7c-1.9,19.4,0.3,38,5.9,54.8l252.1-152.7
		C432.4,142.4,397.3,126,356.6,126z"/>
</g>
</svg>
