<svg xmlns="http://www.w3.org/2000/svg" xmlns:xlink="http://www.w3.org/1999/xlink" version="1.1" id="Layer_1" x="0" y="0" width="604.8" height="171.6" viewBox="0 0 604.8 171.6" enable-background="new 0 0 604.8 171.6" xml:space="preserve">
  <path fill="#EDEBEB" d="M230.9 60.5L210.48 0 195.7 51.7 170.9 0 166.7 57.8l-28.95-47.38L99.1 11.6 95.7 29.2 71.73 0 55.2 23.8 32.48 0 9.8 140.4l64 28v0.2c2.9 1.8 6.8 2.9 11.6 2.9h8.1c8.4 0 14.4-2.7 18-8.1l12.8 7.1H141l2.7-42h9.4c3.1 0 5.8-0.1 8.1-0.8l-1 14.3 31.5 28.5h19.9l2.3-16.2 12.4 16.2H246l17.8-108.8L249.31 0 230.9 60.5zM302.4 9.6H273L261.2 131.2l7.3 25c1.7 10.1 8.2 15.4 19.7 15.4h8.9c12.9 0 19.5-6.6 20-19.2v-0.1l4.2-32.8L302.4 9.6zM586.7 125.8L585.31 0 559.3 25.6 540.06 0 520.5 23.5 509.57 0 478.5 41.5 469.48 0l-11.28 19.3L401.73 0l-22.03 60.2 0.6 14.3h14.4l4.7 96h16.7l22.5-19.6L439.9 170.5h16.7l15.3-9.8 0.8 9.8H489.4l25-13.2 1.4 13.2H532.5l65.6-28.4L586.7 125.8zM377.4 9.8L332.71 0 324.8 60.4l1.1 110.1h18.7v-0.3l12.1-28.2 -6.3-17.5c0 0 7.4 2.5 7.5 7.5l1.2 38.5h16.7l20.9-28.4L379.6 85.8 377.4 9.8z"/>
  <path fill="#F36B21" d="M62.4 116c-1.4 18.2-10.8 27.3-28.3 27.3H23.7c-17.5 0-25.2-9.1-23.4-27.3L12.07 0h20.42L21.7 114.9c-0.5 5.8 1.8 8.5 7.4 8.5h3.4c5.4 0 8.2-2.7 8.7-8.5L51.23 0h20.5L62.4 116zM95.3 142H73.8L84.47 0h32.1c16.6 0 24.4 8.2 23.5 25.1L137.9 62.9C137 80.4 128 89.2 110.8 89.2h-12L95.3 142zM112 19.2h-8.5L100.1 70.1h8.6c5.3 0 8-2.6 8.3-8.2l2.1-34.7c0.3-5.4-2-8-7.2-8H112zM150.4 0h20.5l5.9 99 14.35-99h19.33l8.12 98.8L230.65 0h18.67L230.2 141.9h-25.3l-6.7-86 -12.2 86h-25.5L150.4 0zM295.6 143.2h-11.5c-17.5 0-26.1-9.1-25.9-27.3L259.1 25c0.2-16.8 8.5-25 25.1-25h10.9C311.7 0 320 8.2 320.3 25.1L321.5 116c0.2 18.2-8.3 27.2-25.8 27.3h-0.1V143.2zM291.9 18.1h-4.2c-5.4 0-7.9 2.5-7.9 8l-0.2 88.9c0 5.8 2.6 8.5 8.2 8.5h4.4c5.4 0 8-2.7 7.9-8.5l-0.5-88.9c-0.1-5.5-2.6-8-7.8-8H291.9zM394.9 92.5l1.9 49.5h-21.5L373.8 92.9c-0.2-6.3-3-9.2-9.1-9.2h-9.5l1.5 58.3h-21.5L332.71 0h33.6c16.6 0 25.2 8.2 25.8 25.1L393 52.2c0.5 12.4-3.6 18.4-11.1 21.6 8.8 2.4 12.5 7.9 13 18.6l0 0V92.5zM363.5 19.4h-10l1.1 45.5H364c5.9 0 8.5-2.8 8.3-8.6l-0.9-29.2C371.3 22 368.7 19.4 363.5 19.4L363.5 19.4zM427 142L420.9 19.9h-18.5L401.73 0h57L460 19.8h-18.5l7 122.1H427V142zM514.5 58.8L509.57 0h20.42L542.8 142h-21.5L516 78.3H495.8l4.8 63.7h-21.5L469.48 0h20.42l4.5 58.7h20.1V58.8zM585.31 0H604.8l-12.1 91 5.6 50.9h-21.5L571.7 92 540.06 0h21l18.14 58.7L585.31 0z"/>
</svg>
